<svg xmlns="http://www.w3.org/2000/svg" xmlns:xlink="http://www.w3.org/1999/xlink" width="121.253" height="41.697" viewBox="0 0 121.253 41.697">
  <defs>
    <clipPath id="clip-path">
      <rect id="Rectangle_180" data-name="Rectangle 180" width="121.253" height="41.697" fill="none"/>
    </clipPath>
  </defs>
  <g id="Group_204" data-name="Group 204" transform="translate(0)">
    <path id="Path_102" data-name="Path 102" d="M27.649,0,14.483,16.892,1.34.023H0V29.785H.454V4.589L15.585,24l2.488-2.5-3.294-4.249L25.491,3.51V29.785h3.5V0Z" fill="#161615"/>
    <g id="Group_202" data-name="Group 202" transform="translate(0)">
      <g id="Group_201" data-name="Group 201" clip-path="url(#clip-path)">
        <path id="Path_103" data-name="Path 103" d="M395.7,91.88a5.044,5.044,0,0,1,.1,2.624,6.635,6.635,0,0,1-1.085,2.363,8.467,8.467,0,0,1-1.863,1.886,11.3,11.3,0,0,1-4.277,1.914,15.8,15.8,0,0,1-4.8.3,17.633,17.633,0,0,1-4.612-1.022,12.186,12.186,0,0,1-2.618-1.307,7.937,7.937,0,0,1-2.107-2.022,5.99,5.99,0,0,1-1.068-3.2,4.714,4.714,0,0,1,1.045-3.164,2.412,2.412,0,0,1-.46-1.539,3.22,3.22,0,0,1,.489-1.5,4.571,4.571,0,0,1,1.073-1.21,10.152,10.152,0,0,1,1.653-1.028q.88-.437,1.778-.8a8.791,8.791,0,0,1-2.295-1.863,7.844,7.844,0,0,1-1.5-2.545,7.278,7.278,0,0,1-.017-4.754,8.138,8.138,0,0,1,2.8-3.868,9.528,9.528,0,0,1,5.117-1.863,9.724,9.724,0,0,1,5.333,1.17,4.551,4.551,0,0,0,1.778-.682,11.5,11.5,0,0,0,1.778-1.5q.136.182.284.364.318.4.647.784A6.524,6.524,0,0,1,389.243,71a8.2,8.2,0,0,1,3.067,4.146,7.239,7.239,0,0,1,.062,4.1,7.878,7.878,0,0,1-2.085,3.533A9.057,9.057,0,0,1,386.466,85a9.98,9.98,0,0,1-4.425.267h-.454q-1.124-.023-2.34.051a8.336,8.336,0,0,0-2.312.466,4.254,4.254,0,0,0-1.857,1.3,3.023,3.023,0,0,0-.613,1.238,2.129,2.129,0,0,0,.136,1.363,1.9,1.9,0,0,0,1.034.943,3.737,3.737,0,0,0,1.409.25,9.7,9.7,0,0,0,2.993-.494,30.436,30.436,0,0,0,2.857-1.107q.693-.3,1.363-.568a17.492,17.492,0,0,1,3.516-1.045,8.336,8.336,0,0,1,3.618.114,6.564,6.564,0,0,1,2.675,1.517,5.9,5.9,0,0,1,1.63,2.584m-20.5,4.976a9.014,9.014,0,0,0,2.738,2.1,13.76,13.76,0,0,0,3.334,1.159,19.251,19.251,0,0,0,3.448.415,9.6,9.6,0,0,0,3.3-1.13,7.676,7.676,0,0,0,2.573-2.335,6.872,6.872,0,0,0,1.034-2.38,5.105,5.105,0,0,0-.068-2.573,3.631,3.631,0,0,0-1.772-2.147,6.057,6.057,0,0,0-2.772-.693,10.483,10.483,0,0,0-2.528.284q-1.244.3-2.471.693-.715.227-1.431.42-.171.057-.341.1-.886.261-1.88.466a6.265,6.265,0,0,1-1.943.1,3.086,3.086,0,0,1-1.7-.738,4.316,4.316,0,0,0-.875,3.181,5.7,5.7,0,0,0,1.352,3.078m8.5-27.138a3.375,3.375,0,0,0-1.8.477,4.537,4.537,0,0,0-1.335,1.261,7.839,7.839,0,0,0-.92,1.727,10.938,10.938,0,0,0-.545,1.9,12.4,12.4,0,0,0-.216,1.789,12.536,12.536,0,0,0,.284,3.135,8.844,8.844,0,0,0,1.25,3.067,4.331,4.331,0,0,0,2.476,1.84,9.03,9.03,0,0,0,1.568,0,4.34,4.34,0,0,0,2.488-1.835,8.8,8.8,0,0,0,1.249-3.067,12.6,12.6,0,0,0,.284-3.141,12.382,12.382,0,0,0-.216-1.778,11.265,11.265,0,0,0-.54-1.9,7.8,7.8,0,0,0-.914-1.732,4.543,4.543,0,0,0-1.329-1.266,3.324,3.324,0,0,0-1.783-.477" transform="translate(-324.471 -59.335)" fill="#161615"/>
        <path id="Path_104" data-name="Path 104" d="M697.405,86.981h.489a10.044,10.044,0,0,1-1.869,3.277,10.979,10.979,0,0,1-2.9,2.414,11.779,11.779,0,0,1-4.271,1.431,11.373,11.373,0,0,1-4.481-.278,9.059,9.059,0,0,1-3.9-2.175,10.17,10.17,0,0,1-2.579-3.976,11.232,11.232,0,0,1-.619-4.68,10.434,10.434,0,0,1,1.426-4.521q.125-.193.2-.324t.159-.256a2.194,2.194,0,0,1,.125-.182A9.937,9.937,0,0,1,680.6,76.1a9.165,9.165,0,0,1,3.828-2.028,8.969,8.969,0,0,1,4.328-.085,9.238,9.238,0,0,1,4.544,2.709,10.483,10.483,0,0,1,2.51,4.686H680.173a11.706,11.706,0,0,0,1.886,5.72,10.868,10.868,0,0,0,4.51,3.97,8.835,8.835,0,0,0,3.715.806,7.958,7.958,0,0,0,3.578-.858,7.683,7.683,0,0,0,2.851-2.516,9.868,9.868,0,0,0,.693-1.522m-17.244-6.055H692.3a13.89,13.89,0,0,0-1.289-3.084,8.142,8.142,0,0,0-2.17-2.527,4.89,4.89,0,0,0-3.118-.977,6.893,6.893,0,0,0-2.369.54,5.028,5.028,0,0,0-1.959,1.392,5.341,5.341,0,0,0-1.011,2.215,10.436,10.436,0,0,0-.227,2.442" transform="translate(-588.557 -64.103)" fill="#161615"/>
        <path id="Path_105" data-name="Path 105" d="M841.117,44.23v.454h-6.759V60.134a5.013,5.013,0,0,0,.454,2.136,2.367,2.367,0,0,0,1.613,1.352q.3.023.483.034t.335.011a3.043,3.043,0,0,0,.824-.358,3.893,3.893,0,0,0,.8-.721l.977,1.023a6.728,6.728,0,0,1-3.243.46,6.609,6.609,0,0,1-3-1.085,6.115,6.115,0,0,1-2.124-2.476,5.915,5.915,0,0,1-.517-1.874,19.259,19.259,0,0,1-.1-1.942V44.684h-2.533V44.23h2.533V39.3h3.487l.011,4.93Z" transform="translate(-719.864 -34.154)" fill="#161615"/>
        <path id="Path_106" data-name="Path 106" d="M239.851,61.277a7.007,7.007,0,0,1,3.423-.314c.66.2,1.243.541,1.879.764l-.478.191a6.035,6.035,0,0,1,.953-1.454,13.768,13.768,0,0,1,1.906-1.649,6.122,6.122,0,0,0,1.729-1.626l.162-.274.152.275a6.165,6.165,0,0,0,1.733,1.638,8.389,8.389,0,0,1,2.84,3.146l-.512-.152.076-.046a5.038,5.038,0,0,1,3.894-.808c.434.093.843.216,1.256.294l-.055.348a8.344,8.344,0,0,0-2.5-.222,4.62,4.62,0,0,0-2.219.967c-.033.02-.37.264-.414.293a7.034,7.034,0,0,0-.947-1.749A12.553,12.553,0,0,0,251,59.2a6.323,6.323,0,0,1-1.742-1.851s.319,0,.313,0a6.32,6.32,0,0,1-1.728,1.846,9.443,9.443,0,0,0-2.166,2.317,8.6,8.6,0,0,0-.477,1.042l-.337-.154c-.608-.263-1.171-.638-1.772-.876a6.706,6.706,0,0,0-3.163.093l-.084-.343" transform="translate(-208.445 -49.462)" fill="#040405"/>
        <path id="Path_107" data-name="Path 107" d="M245,88.743a10.882,10.882,0,0,0-2.327,6.266c-.07,1.359.2,3.419.04,5.174-.136,1.507-.915,3.2-2.382,3.2h-2.3c-1.6,0-2.647-1.608-2.841-3.471-.169-1.62.087-3.264,0-4.894a10.882,10.882,0,0,0-2.327-6.266A7.594,7.594,0,0,0,227.7,85.9l0,.1a3.87,3.87,0,0,1,2.878,2.412,15.876,15.876,0,0,1,1.1,6.25c.087,2.211.088,5.345,1.457,7.039a6.006,6.006,0,0,0,4.885,2.061c.445,0,1.758.007,2.308.007a6,6,0,0,0,4.389-2.388c1.215-1.66,1.329-3.833,1.424-5.971.011-.253.021-.506.031-.759a15.877,15.877,0,0,1,1.1-6.25A3.871,3.871,0,0,1,250.163,86l0-.1A7.593,7.593,0,0,0,245,88.743" transform="translate(-197.884 -74.647)" fill="#161615"/>
        <path id="Path_108" data-name="Path 108" d="M533.319,61.277a7.007,7.007,0,0,1,3.423-.314c.66.2,1.243.541,1.879.764l-.478.191a6.035,6.035,0,0,1,.953-1.454A13.776,13.776,0,0,1,541,58.815a6.123,6.123,0,0,0,1.729-1.626l.162-.274.152.275a6.165,6.165,0,0,0,1.733,1.638,8.389,8.389,0,0,1,2.84,3.146l-.513-.152.076-.046a5.038,5.038,0,0,1,3.894-.808c.434.093.843.216,1.256.294l-.054.348a8.343,8.343,0,0,0-2.5-.222,4.619,4.619,0,0,0-2.219.967c-.033.02-.37.264-.414.293A7.032,7.032,0,0,0,546.2,60.9a12.543,12.543,0,0,0-1.729-1.7,6.323,6.323,0,0,1-1.741-1.851s.319,0,.313,0a6.319,6.319,0,0,1-1.728,1.846,9.442,9.442,0,0,0-2.166,2.317,8.582,8.582,0,0,0-.477,1.042l-.337-.154c-.608-.263-1.171-.638-1.771-.876a6.707,6.707,0,0,0-3.163.093l-.084-.343" transform="translate(-463.486 -49.462)" fill="#040405"/>
        <path id="Path_109" data-name="Path 109" d="M538.47,88.743a10.881,10.881,0,0,0-2.327,6.266c-.07,1.359.2,3.419.04,5.174-.136,1.507-.915,3.2-2.382,3.2h-2.3c-1.6,0-2.647-1.608-2.841-3.471-.169-1.62.087-3.264,0-4.894a10.882,10.882,0,0,0-2.327-6.266,7.594,7.594,0,0,0-5.165-2.849l0,.1a3.87,3.87,0,0,1,2.878,2.412,15.877,15.877,0,0,1,1.1,6.25c.087,2.211.088,5.345,1.457,7.039a6.006,6.006,0,0,0,4.885,2.061c.445,0,1.758.007,2.308.007a6,6,0,0,0,4.389-2.388c1.215-1.66,1.329-3.833,1.424-5.971.011-.253.021-.506.031-.759a15.877,15.877,0,0,1,1.1-6.25A3.871,3.871,0,0,1,543.631,86l0-.1a7.593,7.593,0,0,0-5.166,2.849" transform="translate(-452.925 -74.647)" fill="#161615"/>
      </g>
    </g>
  </g>
</svg>
