<?xml version="1.0" encoding="utf-8"?>
<!-- Generator: Adobe Illustrator 27.8.1, SVG Export Plug-In . SVG Version: 6.00 Build 0)  -->
<svg version="1.1" id="Layer_1" xmlns="http://www.w3.org/2000/svg" xmlns:xlink="http://www.w3.org/1999/xlink" x="0px" y="0px"
	 viewBox="0 0 1004.6 373.6" style="enable-background:new 0 0 1004.6 373.6;" xml:space="preserve">
<style type="text/css">
	.st0{opacity:0.2;fill:#FDEDEB;}
	.st1{fill:#FDEDEB;}
	.st2{fill:none;}
	.st3{fill:none;stroke:#F4B5A3;stroke-miterlimit:10;}
	.st4{fill:none;stroke:#FFFFFF;stroke-miterlimit:10;}
	.st5{fill:#FFFFFF;}
	.st6{fill:none;stroke:#FFFFFF;stroke-width:2.9497;stroke-miterlimit:10;}
	.st7{fill:none;stroke:#FFFFFF;stroke-width:2.9905;stroke-miterlimit:10;}
	.st8{fill:none;stroke:#FFFFFF;stroke-width:26;stroke-miterlimit:10;}
	.st9{fill:none;stroke:#EA6D4B;stroke-miterlimit:10;}
	.st10{opacity:0.22;fill:#EEE3DC;}
	.st11{fill:none;stroke:#2A5366;stroke-miterlimit:10;}
	.st12{fill:#2A5366;}
	.st13{fill:none;stroke:#81C181;stroke-miterlimit:10;}
	.st14{fill:none;stroke:#81C181;stroke-miterlimit:10;stroke-dasharray:9.5251,9.5251;}
	.st15{fill:none;stroke:#81C181;stroke-miterlimit:10;stroke-dasharray:9.5506,9.5506;}
	.st16{fill:none;stroke:#81C181;stroke-miterlimit:10;stroke-dasharray:9.9062,9.9062;}
	.st17{fill:none;stroke:#81C181;stroke-miterlimit:10;stroke-dasharray:9.5816;}
	.st18{fill:url(#SVGID_00000139973107006733938390000002570870840652453802_);}
	.st19{fill:url(#SVGID_00000044165621405735087690000009134249004331243437_);}
	.st20{fill:url(#SVGID_00000171692763840886809300000013582363812937708454_);}
	.st21{fill:url(#SVGID_00000110429544933166779130000012575156115682079371_);}
	.st22{fill:url(#SVGID_00000061456613971692652720000018191002837193656974_);}
	.st23{fill:url(#SVGID_00000055681733460287341130000005330666292691477149_);}
	.st24{fill:url(#SVGID_00000166651600819157309840000015219116936298674837_);}
	.st25{fill:url(#SVGID_00000075848746139226433290000012793143171198831032_);}
	.st26{fill:url(#SVGID_00000088115765744035644160000016599744195317238442_);}
	.st27{fill:url(#SVGID_00000175314092336657127400000003804422319264229288_);}
	.st28{fill:url(#SVGID_00000109749355916401594300000017355552597790265771_);}
	.st29{fill:url(#SVGID_00000180362013657941303200000007914966880025431990_);}
	.st30{fill:url(#SVGID_00000153671726890216910560000004471273550065927855_);}
	.st31{opacity:0.27;fill:#D8D8D8;}
	.st32{fill:url(#SVGID_00000070815631257538817050000011042321713211941049_);}
	.st33{fill:url(#SVGID_00000152972075419913074580000000462328339610134161_);}
	.st34{fill:url(#SVGID_00000004533147041732423550000016532773692072948121_);}
	.st35{fill:url(#SVGID_00000014636498740173483370000006700135978595771312_);}
	.st36{fill:url(#SVGID_00000055708293801126216590000011264283523646546075_);}
	.st37{fill:url(#SVGID_00000008110018031322647270000014842725996215201425_);}
	.st38{fill:url(#SVGID_00000086669138754142661800000001431172159637415103_);}
	.st39{fill:url(#SVGID_00000048475372299124995280000003132904574363512500_);}
	.st40{fill:url(#SVGID_00000101104164859070118150000000532706182600342942_);}
	.st41{fill:url(#SVGID_00000113313037723635744790000015889353672198790029_);}
	.st42{fill:url(#SVGID_00000114066153676594973880000011814265765510479274_);}
	.st43{fill:url(#SVGID_00000173858277216139028140000015786389595437723803_);}
	.st44{fill:url(#SVGID_00000114760128272979898500000002486570684220939649_);}
	.st45{fill:url(#SVGID_00000107575123620124817480000013614806630600759466_);}
	.st46{fill:url(#SVGID_00000059309740110327316790000009979802045561103807_);}
	.st47{fill:url(#SVGID_00000041257420536298039870000012001402691046813077_);}
	.st48{fill:url(#SVGID_00000167363213232101804300000003579739528130285491_);}
	.st49{fill:url(#SVGID_00000168108903968367096310000007648350198728737418_);}
	.st50{fill:url(#SVGID_00000084499928213874358790000005507623554103634860_);}
	.st51{fill:url(#SVGID_00000140007729310276842850000014223843817851307670_);}
	.st52{fill:url(#SVGID_00000021106285526811755430000016317508198172176018_);}
	.st53{fill:url(#SVGID_00000003065668538218985100000001424017072136649651_);}
	.st54{fill:url(#SVGID_00000011025805348376399120000003386304183678964894_);}
	.st55{fill:url(#SVGID_00000083052194871444349980000014124070930374150038_);}
	.st56{fill:url(#SVGID_00000143586492258423228670000013768508349906617774_);}
	.st57{fill:url(#SVGID_00000000187745019439490390000006434474044717473172_);}
	.st58{fill:url(#SVGID_00000138540617749570649920000010843527257523796660_);}
	.st59{fill:url(#SVGID_00000012462800897989358660000002020803897160686244_);}
	.st60{fill:url(#SVGID_00000121258850106203047450000002314968053772756923_);}
	.st61{fill:url(#SVGID_00000032638894722229342550000010436248663796802995_);}
	.st62{fill:url(#SVGID_00000032616481495219239560000003585462380801189786_);}
	.st63{fill:url(#SVGID_00000004510332344483036440000002770916137055964858_);}
	.st64{fill:url(#SVGID_00000098927327937231641070000016986164997565213105_);}
	.st65{fill:url(#SVGID_00000046320911148688516060000003587014600394541225_);}
	.st66{fill:url(#SVGID_00000090977085745020543930000015013876206796722820_);}
	.st67{fill:url(#SVGID_00000121967998066719589900000006558453163950859942_);}
	.st68{fill:url(#SVGID_00000072961152726650963230000009564385651075889847_);}
	.st69{fill:url(#SVGID_00000111158934539162690080000000158285526920281268_);}
	.st70{fill:url(#SVGID_00000113341641492329589760000016052616492334865540_);}
	.st71{fill:url(#SVGID_00000120526153594187078810000011852863751871365775_);}
	.st72{fill:url(#SVGID_00000124139956399663793490000007738327275568923811_);}
	.st73{fill:url(#SVGID_00000033337930315202460510000011128312294018229138_);}
	.st74{fill:url(#SVGID_00000090981365319851380110000017199293425906777730_);}
	.st75{fill:url(#SVGID_00000108278824085193638590000016286968549189476795_);}
	.st76{fill:url(#SVGID_00000128473152051756090730000005813705390462452396_);}
	.st77{fill:url(#SVGID_00000010289952053973286680000006237415287072039086_);}
	.st78{fill:url(#SVGID_00000067228425051665487100000013582290747741547908_);}
	.st79{fill:url(#SVGID_00000170239570262595751820000001108759742075352233_);}
	.st80{fill:url(#SVGID_00000080208041605626048220000003629407517028473787_);}
	.st81{fill:url(#SVGID_00000086675022130451688750000004021753025429595325_);}
	.st82{fill:url(#SVGID_00000019677639002774025530000003675891005475808652_);}
	.st83{fill:url(#SVGID_00000057839462382236659430000012965922912026902661_);}
	.st84{fill:url(#SVGID_00000043423131150372865980000010356876098813489570_);}
	.st85{fill:url(#SVGID_00000069397712060084333300000009959027835280993160_);}
	.st86{fill:url(#SVGID_00000181068981683861108870000010194538645454815894_);}
	.st87{fill:url(#SVGID_00000058556386592775879760000002614996112894657694_);}
	.st88{fill:url(#SVGID_00000065037163664726754260000012439170879106119826_);}
	.st89{fill:url(#SVGID_00000165928014764114221540000010963302852402257825_);}
	.st90{fill:url(#SVGID_00000181798052412902985380000006860318338448350354_);}
	.st91{fill:#DBB76E;}
	.st92{fill:none;stroke:#BC963E;stroke-miterlimit:10;}
	.st93{fill:#E0AA46;}
	.st94{fill:#EE6F50;}
	.st95{fill:url(#SVGID_00000132063249818031145670000010304168620317508543_);}
	.st96{fill:url(#SVGID_00000021120151885757652340000014287030860504080812_);}
	.st97{fill:url(#SVGID_00000072965791456982035290000007804793657230762401_);}
	.st98{fill:url(#SVGID_00000041974547142655007540000001857200110674327229_);}
	.st99{fill:url(#SVGID_00000111894674734356687070000018360044619370866567_);}
	.st100{fill:url(#SVGID_00000002364918173494472340000006639757796876663462_);}
	.st101{fill:url(#SVGID_00000134960976400102920650000007763271788222705068_);}
	.st102{fill:url(#SVGID_00000170985898861827913670000006152054245559533724_);}
	.st103{fill:url(#SVGID_00000119807546829059244540000018039285697450341802_);}
	.st104{fill:url(#SVGID_00000121972038252224135790000015507012378667138739_);}
	.st105{fill:url(#SVGID_00000109748669348996738440000016176803500922615713_);}
	.st106{fill:url(#SVGID_00000016779104661210365010000002716306421263683207_);}
	.st107{opacity:0.34;}
	.st108{fill:#EA6D4B;}
	.st109{fill:url(#SVGID_00000137117597211864599980000009021320931838759075_);}
	.st110{fill:url(#SVGID_00000058548005710385666360000013138843591043315104_);}
	.st111{fill:url(#SVGID_00000125560510231226393900000009374609224032927108_);}
	.st112{fill:url(#SVGID_00000067237544921531217870000010159004100897494455_);}
	.st113{fill:url(#SVGID_00000013152659913200715790000006134210396553919898_);}
	.st114{fill:url(#SVGID_00000008866592055943247390000007685322148351884453_);}
	.st115{fill:url(#SVGID_00000005264827019111413520000014688184597528587656_);}
	.st116{fill:url(#SVGID_00000025444155088983116130000002616159340369687715_);}
	.st117{fill:url(#SVGID_00000012442896573010811020000015102533296755779999_);}
	.st118{fill:url(#SVGID_00000106867889328639452230000006094976084405272192_);}
	.st119{fill:url(#SVGID_00000005952280572966689150000010931104462709956518_);}
	.st120{fill:#020203;}
	.st121{fill:url(#SVGID_00000147198071929503563740000007796352811612912010_);}
	.st122{fill:url(#SVGID_00000098900516381343204670000016276308763383231376_);}
	.st123{fill:url(#SVGID_00000065797013953635840340000013586764391696220047_);}
	.st124{fill:url(#SVGID_00000160177475032347496710000015928691913133765555_);}
	.st125{fill:url(#SVGID_00000020380904957662683360000008355385624122588804_);}
	.st126{fill:url(#SVGID_00000173870223746599249200000014451409616903557807_);}
	.st127{fill:url(#SVGID_00000173879519640584026540000005753521621424597635_);}
	.st128{fill:url(#SVGID_00000078035538844782130330000013829206005021673118_);}
	.st129{fill:url(#SVGID_00000175319793834583789180000016496250144802492815_);}
	.st130{fill:url(#SVGID_00000167371042380431365000000000105047033528734388_);}
	.st131{fill:url(#SVGID_00000131362311608795989770000000524129330342842799_);}
	.st132{fill:url(#SVGID_00000008127946822288026360000008694288329265626552_);}
	.st133{fill:url(#SVGID_00000154410907008530606120000001279496737124864900_);}
	.st134{opacity:9.000000e-02;fill:#EA6D4B;}
	.st135{fill:url(#SVGID_00000170248892653670258080000013940834496373666479_);}
	.st136{fill:#95B0DD;}
	.st137{fill:#E8E8E8;}
	.st138{opacity:0.6;}
	.st139{opacity:0.6;fill:#E8E8E8;}
	.st140{fill:url(#SVGID_00000070834224125209890060000001689508074091600305_);}
	.st141{fill:url(#SVGID_00000149370782703211738940000001566392231811336616_);}
	.st142{opacity:9.000000e-02;fill:#EA6D4C;}
	.st143{fill:#ACAAAB;}
	.st144{fill:#C2C1C1;}
	.st145{fill:#7DBE77;}
	.st146{fill:#D7D7D6;}
	.st147{fill:none;stroke:#EA6D4C;stroke-miterlimit:10;}
	.st148{opacity:0.3;fill:#2A4266;}
	.st149{fill:#C99F61;}
	.st150{fill:url(#SVGID_00000092443597391168601050000011799796089669615016_);}
	.st151{fill:url(#SVGID_00000140728700820491790200000008468540821698949303_);}
	.st152{fill:url(#SVGID_00000101103228042541114910000010811076583725715634_);}
	.st153{fill:#F6DEB6;}
	.st154{fill:url(#SVGID_00000060021230553984687430000010002418632098944430_);}
	.st155{fill:url(#SVGID_00000005236470990175669330000013799160111248325297_);}
	.st156{fill:url(#SVGID_00000171719939938555548830000006926158233043867813_);}
	.st157{fill:url(#SVGID_00000021806468238978848770000007372598367781585855_);}
	.st158{fill:url(#SVGID_00000007387376785423676300000017008386221216966826_);}
	.st159{fill:url(#SVGID_00000027563378977970678220000014434763246205685950_);}
	.st160{fill:url(#SVGID_00000039121668369874516510000002316657627816322180_);}
	.st161{fill:url(#SVGID_00000052789992505491262690000017102607859061620412_);}
	.st162{fill:url(#SVGID_00000152967183532401075380000013875241577301756597_);}
	.st163{fill:url(#SVGID_00000155109042834096759590000017425824319332120963_);}
	.st164{fill:url(#SVGID_00000068646436248999932590000002508876211062479520_);}
	.st165{fill:url(#SVGID_00000128481772609456432110000008409649910803856307_);}
	.st166{fill:url(#SVGID_00000103958419159690005510000018106750277777964715_);}
	.st167{fill:url(#SVGID_00000063615526162184284590000005138822924564755364_);}
	.st168{fill:url(#SVGID_00000007406502856037403910000003571063632648455587_);}
	.st169{fill:url(#SVGID_00000077312040305606404380000003122534433458395543_);}
	.st170{fill:url(#SVGID_00000056412855039571500310000006909945344836670354_);}
	.st171{fill:url(#SVGID_00000052090331667252609780000008992967925357435571_);}
	.st172{fill:url(#SVGID_00000034774088756653065450000009349844470146506400_);}
	.st173{fill:url(#SVGID_00000116202522553040695970000013950524325833666188_);}
	.st174{fill:url(#SVGID_00000121974810651434742850000000475621485106106549_);}
	.st175{fill:url(#SVGID_00000112620432502322996910000011078046169278814378_);}
	.st176{fill:url(#SVGID_00000090984769765654041110000008255602989306906798_);}
	.st177{fill:url(#SVGID_00000147920109367967339190000016699301459295188118_);}
	.st178{fill:url(#SVGID_00000127730547504008592630000017561211825632229288_);}
	.st179{fill:url(#SVGID_00000010291690482000267070000005412746015405900964_);}
	.st180{fill:url(#SVGID_00000002345261578924446800000010829239809556831362_);}
	.st181{fill:url(#SVGID_00000088119631187451379680000006691510076713845419_);}
	.st182{fill:url(#SVGID_00000078743783066565900540000002110393798868701082_);}
	.st183{fill:url(#SVGID_00000111160770698669225940000007088888342944472725_);}
	.st184{fill:url(#SVGID_00000131347412372483908840000002483436301388306869_);}
	.st185{fill:url(#SVGID_00000018928652010475282210000012444164908895197603_);}
	.st186{fill:url(#SVGID_00000047738564163939650240000005576414872919157683_);}
	.st187{fill:url(#SVGID_00000132769885356966687410000007432112069752860606_);}
	.st188{fill:url(#SVGID_00000057855961290148195090000016403044205234889613_);}
	.st189{fill:url(#SVGID_00000016783996225334513920000015528612594826076812_);}
	.st190{fill:url(#SVGID_00000066513318743689410120000007868659698445982865_);}
	.st191{fill:url(#SVGID_00000065770911364755901840000012923292073484527248_);}
	.st192{fill:url(#SVGID_00000000199832048011849320000008985736634476162465_);}
	.st193{fill:url(#SVGID_00000168827194085568845940000000357562805742985126_);}
	.st194{fill:url(#SVGID_00000026842257616275217790000006745095730537552280_);}
	.st195{fill:url(#SVGID_00000088124335294203091080000018106270368594577802_);}
	.st196{fill:url(#SVGID_00000141456202753504413910000017723268445101717661_);}
	.st197{fill:url(#SVGID_00000002352151386899451140000006456308868895246014_);}
	.st198{fill:url(#SVGID_00000172406537818045489510000016614050821338724775_);}
	.st199{fill:url(#SVGID_00000123434248203586840080000014885130328972220065_);}
	.st200{fill:url(#SVGID_00000109710604996375165200000015072389234831596187_);}
	.st201{fill:url(#SVGID_00000182527814829553352020000011434856099304712320_);}
	.st202{fill:url(#SVGID_00000084530716610859698340000008466866344655057339_);}
	.st203{fill:url(#SVGID_00000126321088472590730180000015168453689904609205_);}
	.st204{fill:url(#SVGID_00000004506261635766546600000013787582273931688127_);}
	.st205{fill:url(#SVGID_00000094609870709331535700000016339798958438541982_);}
	.st206{fill:url(#SVGID_00000014631692040186367450000009072471239124687512_);}
	.st207{fill:url(#SVGID_00000023261495872889283060000001598146858070394813_);}
	.st208{fill:url(#SVGID_00000022560742503935504280000000826481133427077815_);}
	.st209{fill:url(#SVGID_00000039125283698574400130000007767466636741227169_);}
	.st210{fill:url(#SVGID_00000127046485239784959270000013989726976530016391_);}
	.st211{fill:url(#SVGID_00000150099445259635442650000000977644375791176360_);}
	.st212{fill:url(#SVGID_00000034050968838109954300000011512662922643097535_);}
	.st213{fill:url(#SVGID_00000161595347086502254860000009042220518947413426_);}
	.st214{fill:url(#SVGID_00000136374047434326785630000011329118571588437398_);}
	.st215{fill:url(#SVGID_00000137118204897916057190000012588094990604909990_);}
	.st216{fill:#EA6D4C;}
	.st217{opacity:0.37;fill:url(#SVGID_00000084499355170165114000000012411505191762477457_);}
	.st218{clip-path:url(#SVGID_00000072992133978334643150000012483548535952241056_);}
	.st219{clip-path:url(#SVGID_00000118375797755886861620000010974547927723368834_);}
	.st220{clip-path:url(#SVGID_00000145027181609435101550000003871177556778245514_);}
	.st221{clip-path:url(#SVGID_00000112600821924670855530000001826785447000282025_);}
	.st222{clip-path:url(#SVGID_00000175318040308824288360000017920656338470209443_);}
	.st223{clip-path:url(#SVGID_00000057829178477117709180000015936324581287866260_);}
	.st224{clip-path:url(#SVGID_00000107584118781150243720000007752088496805040059_);}
	.st225{clip-path:url(#SVGID_00000117658047505063983090000009923640569654130578_);}
	.st226{clip-path:url(#SVGID_00000166675161552271407160000005394479427531177862_);}
	.st227{clip-path:url(#SVGID_00000037673192236364527910000001360356066553410707_);}
	.st228{clip-path:url(#SVGID_00000011722112440602954550000012425363560519505845_);}
	.st229{clip-path:url(#SVGID_00000174574982961629502290000011364346945460305341_);}
	.st230{fill:#12100B;}
	.st231{clip-path:url(#SVGID_00000066502223451773212720000015495157945426275713_);}
	.st232{clip-path:url(#SVGID_00000148621071242428005310000008386010758995925166_);}
	.st233{clip-path:url(#SVGID_00000098212988435825788640000003639130274729711491_);}
	.st234{clip-path:url(#SVGID_00000102527386237587901280000001969081945293319073_);}
	.st235{clip-path:url(#SVGID_00000023282074925869624710000016516347833387348376_);}
	.st236{clip-path:url(#SVGID_00000137834679558385853910000010151139448680299154_);}
	.st237{clip-path:url(#SVGID_00000153703552455625078360000002011522633020670391_);}
	.st238{clip-path:url(#SVGID_00000054256044606398115960000005159975560120367511_);}
	.st239{clip-path:url(#SVGID_00000039816073112845207840000013167449939240301206_);}
	.st240{clip-path:url(#SVGID_00000112597656727957371780000002280398269244485804_);}
	.st241{clip-path:url(#SVGID_00000049186404159475000880000007226694959166366131_);}
	.st242{clip-path:url(#SVGID_00000129888472209114076930000013881649172329782702_);}
	.st243{clip-path:url(#SVGID_00000077298415062836977190000017399514593789725317_);}
	.st244{clip-path:url(#SVGID_00000072973501005712350540000006523393147947981189_);}
	.st245{clip-path:url(#SVGID_00000156564655997303877810000016907599354447733120_);}
	.st246{clip-path:url(#SVGID_00000034800881549032712190000006091261723028176785_);}
	.st247{clip-path:url(#SVGID_00000005257053005721177450000015591362199655097772_);}
	.st248{clip-path:url(#SVGID_00000039823894430608701600000013492282960449192874_);}
	.st249{clip-path:url(#SVGID_00000104708511968218460040000004126425552380437164_);}
	.st250{clip-path:url(#SVGID_00000141439917442459043400000013596965163894943678_);}
	.st251{clip-path:url(#SVGID_00000111871056867333198810000001932879112950844805_);}
	.st252{clip-path:url(#SVGID_00000071541685942767359210000009000711251837389472_);}
	.st253{clip-path:url(#SVGID_00000012436893744365998250000007083631798160811146_);}
	.st254{clip-path:url(#SVGID_00000173841923178493830390000018321185169297818505_);}
	.st255{clip-path:url(#SVGID_00000092414837404149159810000002061612333649589399_);}
	.st256{clip-path:url(#SVGID_00000087411090561873857550000017074372907357122447_);}
	.st257{clip-path:url(#SVGID_00000003076756508568146110000010312782847930123403_);}
	.st258{clip-path:url(#SVGID_00000049917551493823094740000004772679096014652595_);}
	.st259{clip-path:url(#SVGID_00000008145104977648355770000013817398763416240529_);}
	.st260{clip-path:url(#SVGID_00000000901111510590275500000008260875200012078763_);}
	.st261{clip-path:url(#SVGID_00000179615955376608548150000001933259665340049550_);}
	.st262{clip-path:url(#SVGID_00000075845872181077940190000014945904013782815896_);}
	.st263{clip-path:url(#SVGID_00000141417586638511738720000012059321062538093500_);}
	.st264{clip-path:url(#SVGID_00000060737474342014933510000013197495904076475061_);}
	.st265{clip-path:url(#SVGID_00000100378314024319391920000012906192686059247787_);}
	.st266{clip-path:url(#SVGID_00000127760014317075364410000011426349520931915687_);}
	.st267{clip-path:url(#SVGID_00000134233063354994890560000017292114288466412960_);}
	.st268{clip-path:url(#SVGID_00000103262628117685238800000006437853907332551298_);}
	.st269{clip-path:url(#SVGID_00000114773948071213785830000006769779234668108704_);}
	.st270{clip-path:url(#SVGID_00000018223434864799212740000004880562720533764269_);}
	.st271{clip-path:url(#SVGID_00000043440251283451221550000009437753804425787810_);}
	.st272{clip-path:url(#SVGID_00000135684296242722578460000005779070021852668816_);}
	.st273{clip-path:url(#SVGID_00000129181859084219135800000011263494556122189750_);}
	.st274{clip-path:url(#SVGID_00000053516237555043091650000006470040348822189194_);}
	.st275{clip-path:url(#SVGID_00000134229464784244691420000017116188582931091619_);}
	.st276{clip-path:url(#SVGID_00000152233835978221764010000003343424819168344220_);}
	.st277{clip-path:url(#SVGID_00000094615590856768706220000003784088318147301021_);}
	.st278{clip-path:url(#SVGID_00000017496679215700700150000017742877878471162754_);}
	.st279{clip-path:url(#SVGID_00000041998126393671068380000001667778288989067685_);}
	.st280{clip-path:url(#SVGID_00000079450692139994062130000002031598192966650801_);}
	.st281{clip-path:url(#SVGID_00000072966540806261323150000015795382948148715168_);}
	.st282{clip-path:url(#SVGID_00000072965614276642768040000016152585062836387491_);}
	.st283{clip-path:url(#SVGID_00000122698823594125662910000014610363489044272258_);}
	.st284{clip-path:url(#SVGID_00000117661603834896507850000001175891986921269673_);}
	.st285{clip-path:url(#SVGID_00000137843847799024506900000009478548201206850234_);}
	.st286{clip-path:url(#SVGID_00000087408306573525496910000007926697983321438346_);}
	.st287{clip-path:url(#SVGID_00000154401289019036471760000010527074340173681835_);}
	.st288{clip-path:url(#SVGID_00000118386283229447018840000017385109373814797464_);}
	.st289{clip-path:url(#SVGID_00000173874620843780919380000000386967683084102285_);}
	.st290{clip-path:url(#SVGID_00000163034128616949292750000013041159604065653927_);}
	.st291{clip-path:url(#SVGID_00000072968479242101468590000014484437137623848349_);}
	.st292{clip-path:url(#SVGID_00000048464886936816720100000012210180837207021477_);}
	.st293{clip-path:url(#SVGID_00000096772993306803835720000016096384339057724550_);}
	.st294{clip-path:url(#SVGID_00000034784293140743261320000010780183135001471890_);}
	.st295{clip-path:url(#SVGID_00000039115668035772664060000016923268099852639402_);}
	.st296{clip-path:url(#SVGID_00000141443057644342231540000012618136553409410974_);}
	.st297{clip-path:url(#SVGID_00000016791604837294196690000012015437944741772685_);}
	.st298{clip-path:url(#SVGID_00000159451578214318797720000015930703961596679614_);}
	.st299{clip-path:url(#SVGID_00000026870187521721303800000009928539602755137413_);}
	.st300{clip-path:url(#SVGID_00000049920123814948502470000001911595543543059331_);}
	.st301{clip-path:url(#SVGID_00000011733314444198564280000001889563702179847585_);}
	.st302{clip-path:url(#SVGID_00000081635133247674395060000004141116286955615662_);}
	.st303{clip-path:url(#SVGID_00000179615951329393492630000007268831006622519701_);}
	.st304{clip-path:url(#SVGID_00000121996223248149357030000003041686102871851660_);}
	.st305{clip-path:url(#SVGID_00000003095661812077680760000001839582194420511412_);}
	.st306{clip-path:url(#SVGID_00000060011844548269177350000010801736963164904620_);}
	.st307{clip-path:url(#SVGID_00000021078612692547753130000008870681593402609792_);}
	.st308{clip-path:url(#SVGID_00000133489570115885721320000018422083715264927421_);}
	.st309{clip-path:url(#SVGID_00000121238037336226368660000003254944586252434586_);}
	.st310{clip-path:url(#SVGID_00000043458672552210746260000012768015308772136080_);}
	.st311{clip-path:url(#SVGID_00000059291218607104694390000018118112551935235764_);}
	.st312{clip-path:url(#SVGID_00000047032175569333747710000012754057000673696671_);}
	.st313{clip-path:url(#SVGID_00000172416465596806369800000017295874191743501698_);}
	.st314{clip-path:url(#SVGID_00000035511054679303083500000010044311890979121546_);}
	.st315{clip-path:url(#SVGID_00000007388541906805539020000000693101751324664972_);}
	.st316{clip-path:url(#SVGID_00000098921429489853757500000002432815084143980677_);}
	.st317{fill:#365CA7;}
	.st318{fill:#EAB91F;}
	.st319{fill:url(#SVGID_00000057836778465034999030000016415915122487974564_);}
	.st320{fill:url(#SVGID_00000060019277002948439500000004857794872247385488_);}
	.st321{fill:url(#SVGID_00000129169221584872286680000007471701902660430992_);}
	.st322{fill:none;stroke:#D83535;stroke-miterlimit:10;}
	.st323{fill:#010202;}
	.st324{fill:url(#SVGID_00000074440998480819823970000004222791903490465468_);}
	.st325{fill:url(#SVGID_00000035498110061395320290000005400197785541044390_);}
	.st326{fill:url(#SVGID_00000048463345302285817660000015441448995407352480_);}
	.st327{fill:url(#SVGID_00000113348976342269288800000007139902644078121856_);}
	.st328{fill:url(#SVGID_00000016042287065876892220000007794402563656802237_);}
	.st329{fill:url(#SVGID_00000013872745505591187030000003399665378808080546_);}
	.st330{fill:url(#SVGID_00000102531613407103446640000013749960324124000169_);}
	.st331{fill:url(#SVGID_00000158726043976322424010000012365320638410946954_);}
	.st332{fill:#D83535;}
</style>
<g>
	
		<linearGradient id="SVGID_00000001622727904746481670000003092260368263413693_" gradientUnits="userSpaceOnUse" x1="-41.8135" y1="92.144" x2="875.4119" y2="315.3472">
		<stop  offset="0" style="stop-color:#DBB76E"/>
		<stop  offset="1" style="stop-color:#E0AA46"/>
	</linearGradient>
	<path style="fill:url(#SVGID_00000001622727904746481670000003092260368263413693_);" d="M265.4,28.7h10.2v227.5h-26.7V55.5
		l-81.8,105l25.2,32.4l-19,19.1L57.7,63.8v192.4h-3.5V28.9h10.2l100.4,128.8L265.4,28.7z"/>
	
		<linearGradient id="SVGID_00000127014243958707232670000001223295881802508699_" gradientUnits="userSpaceOnUse" x1="-39.3692" y1="82.0992" x2="877.8563" y2="305.3023">
		<stop  offset="0" style="stop-color:#DBB76E"/>
		<stop  offset="1" style="stop-color:#E0AA46"/>
	</linearGradient>
	<path style="fill:url(#SVGID_00000127014243958707232670000001223295881802508699_);" d="M598.2,277.3c2,6.9,2.3,13.6,0.7,20
		c-1.5,6.5-4.3,12.5-8.3,18c-4,5.6-8.7,10.4-14.2,14.4c-9.8,7.1-20.7,12-32.7,14.6c-12,2.6-24.2,3.4-36.7,2.3
		c-12.4-1.1-24.2-3.7-35.2-7.8c-7-2.5-13.7-5.8-20-10c-6.3-4.2-11.7-9.3-16.1-15.4c-5.1-7.5-7.8-15.6-8.2-24.4
		c-0.3-8.8,2.3-16.9,8-24.2c-2.6-3.8-3.8-7.7-3.5-11.8c0.3-4,1.5-7.8,3.7-11.5c2.2-3.6,5-6.7,8.2-9.2c3.9-3,8.1-5.6,12.6-7.9
		c4.5-2.2,9-4.3,13.6-6.1c-6.7-3.8-12.5-8.5-17.5-14.2c-5-5.7-8.8-12.2-11.5-19.4c-4.1-12.4-4.2-24.5-0.1-36.3
		c4-11.8,11.1-21.6,21.4-29.5c11.7-8.6,24.7-13.3,39.1-14.2c14.4-0.9,27.9,2.1,40.7,8.9c5-0.8,9.5-2.5,13.6-5.2
		c4.1-2.7,8.6-6.5,13.6-11.5c0.7,0.9,1.4,1.9,2.2,2.8c1.6,2,3.3,4,4.9,6c-8,6.9-17.2,10.9-27.7,12.1c11.2,8,19,18.6,23.4,31.7
		c3.2,10.6,3.3,21,0.5,31.3c-2.9,10.3-8.2,19.3-15.9,27c-8.4,8.1-18.1,13.8-29.2,17c-11.1,3.2-22.3,3.9-33.8,2c-1.1,0-2.3,0-3.5,0
		c-5.7-0.1-11.7,0-17.9,0.4c-6.2,0.4-12.1,1.6-17.7,3.6c-5.6,2-10.3,5.3-14.2,9.9c-2.3,2.8-3.9,6-4.7,9.5c-0.8,3.5-0.5,6.9,1,10.4
		c1.8,3.5,4.4,5.9,7.9,7.2c3.5,1.3,7.1,2,10.8,1.9c7.8-0.1,15.4-1.3,22.9-3.8c7.4-2.5,14.7-5.3,21.8-8.5c3.5-1.5,7-3,10.4-4.3
		c8.6-3.6,17.6-6.2,26.8-8c9.3-1.7,18.5-1.4,27.6,0.9c7.8,2.3,14.6,6.1,20.4,11.6C591.6,263,595.7,269.6,598.2,277.3z M441.6,315.3
		c5.9,6.7,12.9,12,20.9,16c8,4,16.5,7,25.5,8.8c8.9,1.9,17.7,2.9,26.3,3.2c8.9-1.3,17.3-4.2,25.2-8.6s14.4-10.4,19.6-17.8
		c3.8-5.5,6.4-11.6,7.9-18.2c1.5-6.6,1.3-13.2-0.5-19.6c-2.5-7.5-7.1-13-13.5-16.4c-6.5-3.4-13.5-5.2-21.2-5.3
		c-6.5-0.1-13,0.7-19.3,2.2c-6.3,1.5-12.6,3.3-18.9,5.3c-3.6,1.2-7.3,2.2-10.9,3.2c-0.9,0.3-1.7,0.5-2.6,0.8
		c-4.5,1.3-9.3,2.5-14.4,3.6c-5.1,1-10,1.3-14.8,0.8s-9.2-2.4-13-5.6c-5.5,7.4-7.7,15.5-6.7,24.3
		C432.3,300.5,435.7,308.4,441.6,315.3z M506.5,108c-5.2,0-9.8,1.2-13.8,3.6c-4,2.4-7.4,5.6-10.2,9.6c-2.8,4-5.2,8.4-7,13.2
		c-1.9,4.8-3.2,9.6-4.2,14.5c-0.9,4.9-1.5,9.4-1.6,13.7c-0.3,7.3,0.4,15.3,2.2,23.9c1.8,8.6,5,16.4,9.5,23.4
		c4.6,7,10.9,11.7,18.9,14.1c4,0.3,8,0.3,12,0c8.1-2.4,14.4-7,19-14c4.6-7,7.7-14.8,9.5-23.4c1.8-8.6,2.5-16.6,2.2-24
		c-0.2-4.2-0.7-8.7-1.6-13.6c-0.9-4.9-2.3-9.7-4.1-14.5c-1.8-4.8-4.2-9.2-7-13.2c-2.8-4-6.2-7.2-10.2-9.7
		C516.2,109.2,511.6,108,506.5,108z"/>
	
		<linearGradient id="SVGID_00000067922372421426363410000018430143452924058042_" gradientUnits="userSpaceOnUse" x1="-14.7741" y1="-18.971" x2="902.4513" y2="204.2322">
		<stop  offset="0" style="stop-color:#DBB76E"/>
		<stop  offset="1" style="stop-color:#E0AA46"/>
	</linearGradient>
	<path style="fill:url(#SVGID_00000067922372421426363410000018430143452924058042_);" d="M885.5,203.4c0.1,0,0.4,0,0.7,0
		c0.4,0,0.8,0,1.3,0c0.5,0,0.9,0,1.2,0c0.3,0,0.5,0,0.6,0c-3.2,9.3-7.9,17.6-14.3,25s-13.7,13.6-22.2,18.4
		c-10.1,5.7-21,9.4-32.6,10.9s-23,0.9-34.2-2.1c-11.2-3-21.1-8.5-29.8-16.6c-9-8.7-15.6-18.8-19.7-30.4c-4.1-11.6-5.7-23.5-4.7-35.7
		c1-12.3,4.6-23.8,10.9-34.5c0.6-1,1.2-1.8,1.6-2.5c0.4-0.7,0.8-1.3,1.2-2c0.4-0.6,0.7-1.1,1-1.4c3.2-4.5,6.8-8.6,10.8-12.3
		c8.3-7.4,18.1-12.6,29.2-15.5c11.2-2.9,22.2-3.1,33.1-0.7c13.7,3.6,25.3,10.5,34.7,20.7c9.4,10.2,15.8,22.1,19.2,35.8
		c-8.6,0-17.2,0-25.9,0c-31.2,0-62.4,0-93.6,0c1,15.8,5.8,30.4,14.4,43.7c8.6,13.3,20.1,23.4,34.4,30.3c9.3,4.2,18.7,6.2,28.4,6.2
		c9.7-0.1,18.8-2.2,27.3-6.5c8.6-4.3,15.8-10.7,21.8-19.2C882.3,211.4,884.1,207.5,885.5,203.4z M753.8,157.2h92.7
		c-2.2-7.9-5.5-15.8-9.8-23.6c-4.4-7.8-9.9-14.2-16.6-19.3c-6.7-5.1-14.6-7.6-23.8-7.5c-6,0.2-12,1.6-18.1,4.1
		c-6.1,2.5-11.1,6.1-15,10.6c-3.8,4.9-6.4,10.6-7.7,16.9C754.2,144.9,753.6,151.1,753.8,157.2z"/>
	
		<linearGradient id="SVGID_00000103965243292648771060000004644401462490870719_" gradientUnits="userSpaceOnUse" x1="-3.3251" y1="-66.0195" x2="913.9003" y2="157.1837">
		<stop  offset="0" style="stop-color:#DBB76E"/>
		<stop  offset="1" style="stop-color:#E0AA46"/>
	</linearGradient>
	<path style="fill:url(#SVGID_00000103965243292648771060000004644401462490870719_);" d="M980.2,105.7v3.5h-51.6c0,2.8,0,10.1,0,22
		c0,11.9,0,24.9,0,38.9c0,14,0,25.5,0,34.5c0,2.5,0,5,0,7.5c0,5,0,10,0,15c-0.1,5.6,1.1,11,3.5,16.3c2.4,5.3,6.5,8.7,12.3,10.3
		c1.5,0.1,2.7,0.2,3.7,0.3c1,0.1,1.8,0.1,2.6,0.1c2.3-0.6,4.4-1.5,6.3-2.7c1.9-1.2,3.9-3,6.1-5.5l7.5,7.8
		c-8.2,3.2-16.4,4.4-24.8,3.5c-8.4-0.9-16-3.7-22.9-8.3S910.5,238,906.6,230c-2.1-4.7-3.5-9.5-3.9-14.3c-0.5-4.9-0.7-9.8-0.7-14.8
		c0-3.8,0-11.7,0-23.8c0-12,0-24.5,0-37.4c0-12.9,0-23.1,0-30.5h-19.3v-3.5h19.3V68h26.6l0.1,37.7H980.2z"/>
</g>
<g>
	
		<linearGradient id="SVGID_00000110446443042874555200000007499844996728910492_" gradientUnits="userSpaceOnUse" x1="-23.6047" y1="17.317" x2="893.6207" y2="240.5202">
		<stop  offset="0" style="stop-color:#DBB76E"/>
		<stop  offset="1" style="stop-color:#E0AA46"/>
	</linearGradient>
	<path style="fill:url(#SVGID_00000110446443042874555200000007499844996728910492_);" d="M294.1,118.9c8.5-2,17.4-4.7,26.1-2.4
		c5,1.5,9.5,4.1,14.3,5.8c0,0-3.6,1.5-3.6,1.5c1.9-4,4.3-7.8,7.3-11.1c4.2-4.8,9.6-8.7,14.6-12.6c4.6-3.5,10.5-7.4,13.2-12.4
		c0,0,1.2-2.1,1.2-2.1l1.2,2.1c2.7,5.1,8.7,9,13.2,12.5c8.6,6.5,17.2,13.9,21.7,24c0,0-3.9-1.2-3.9-1.2l0.6-0.4
		c7.8-5.6,19.8-8.6,29.7-6.2c3.3,0.7,6.4,1.7,9.6,2.2l-0.4,2.7c-6.4-0.8-12.7-2.8-19.1-1.7c-6.3,1-12.2,3.5-16.9,7.4
		c-0.3,0.2-2.8,2-3.2,2.2c-2-4.7-4-9.4-7.2-13.4c-3.7-4.8-8.6-8.9-13.2-13C374.5,99,368.9,94.9,366,89c0,0,2.4,0,2.4,0
		c-2.9,5.9-8.4,10-13.2,14.1c-6,5.3-12.6,10.7-16.5,17.7c-1.4,2.4-2.6,5.3-3.6,8c0,0-2.6-1.2-2.6-1.2c-4.6-2-8.9-4.9-13.5-6.7
		c-7.7-2.6-16.3-0.6-24.2,0.7C294.7,121.6,294.1,118.9,294.1,118.9L294.1,118.9z"/>
</g>
<g>
	
		<linearGradient id="SVGID_00000052080749563218121230000014685152376643378304_" gradientUnits="userSpaceOnUse" x1="-37.7745" y1="75.5462" x2="879.4509" y2="298.7494">
		<stop  offset="0" style="stop-color:#DBB76E"/>
		<stop  offset="1" style="stop-color:#E0AA46"/>
	</linearGradient>
	<path style="fill:url(#SVGID_00000052080749563218121230000014685152376643378304_);" d="M414.1,136.4
		c-10.4,12.7-16.9,30-17.8,47.9c-0.5,10.4,1.5,26.1,0.3,39.5c-1,11.5-7,24.4-18.2,24.4c-3.1,0-14.1,0-17.6,0
		c-12.2,0-20.2-12.3-21.7-26.5c-1.3-12.4,0.7-24.9,0-37.4c-0.9-17.8-7.4-35.2-17.8-47.9c-10.4-12.7-24.7-20.6-39.4-21.8l0,0.8
		c9.3,0.7,17.3,8.7,22,18.4c6.9,14.2,7.8,31.3,8.4,47.7c0.7,16.9,0.7,40.8,11.1,53.8c9.6,11.9,23.6,15.7,37.3,15.7
		c3.4,0,13.4,0.1,17.6,0.1c11.5,0,25.8-7.7,33.5-18.2c9.3-12.7,10.2-29.3,10.9-45.6c0.1-1.9,0.2-3.9,0.2-5.8
		c0.6-16.4,1.6-33.6,8.4-47.7c4.7-9.7,12.7-17.8,22-18.4l0-0.8C438.8,115.8,424.5,123.7,414.1,136.4z"/>
</g>
<g>
	
		<linearGradient id="SVGID_00000063613611442941715160000001144768622760253842_" gradientUnits="userSpaceOnUse" x1="-7.1979" y1="-50.1048" x2="910.0275" y2="173.0984">
		<stop  offset="0" style="stop-color:#DBB76E"/>
		<stop  offset="1" style="stop-color:#E0AA46"/>
	</linearGradient>
	<path style="fill:url(#SVGID_00000063613611442941715160000001144768622760253842_);" d="M587.5,118.9c8.5-2,17.4-4.7,26.1-2.4
		c5,1.5,9.5,4.1,14.3,5.8c0,0-3.6,1.5-3.6,1.5c1.9-4,4.3-7.8,7.3-11.1c4.2-4.8,9.6-8.7,14.6-12.6c4.6-3.5,10.5-7.4,13.2-12.4
		c0,0,1.2-2.1,1.2-2.1l1.2,2.1c2.7,5.1,8.7,9,13.2,12.5c8.6,6.5,17.2,13.9,21.7,24c0,0-3.9-1.2-3.9-1.2l0.6-0.4
		c7.8-5.6,19.8-8.6,29.7-6.2c3.3,0.7,6.4,1.7,9.6,2.2l-0.4,2.7c-6.4-0.8-12.7-2.8-19.1-1.7c-6.3,1-12.2,3.5-16.9,7.4
		c-0.3,0.2-2.8,2-3.2,2.2c-2-4.7-4-9.4-7.2-13.4c-3.7-4.8-8.6-8.9-13.2-13c-4.8-4.1-10.4-8.2-13.3-14.1c0,0,2.4,0,2.4,0
		c-2.9,5.9-8.4,10-13.2,14.1c-6,5.3-12.6,10.7-16.5,17.7c-1.4,2.4-2.6,5.3-3.6,8c0,0-2.6-1.2-2.6-1.2c-4.6-2-8.9-4.9-13.5-6.7
		c-7.7-2.6-16.3-0.6-24.2,0.7C588.2,121.6,587.5,118.9,587.5,118.9L587.5,118.9z"/>
</g>
<g>
	
		<linearGradient id="SVGID_00000181055041127232267550000000980212506972701350_" gradientUnits="userSpaceOnUse" x1="-21.3677" y1="8.1245" x2="895.8577" y2="231.3276">
		<stop  offset="0" style="stop-color:#DBB76E"/>
		<stop  offset="1" style="stop-color:#E0AA46"/>
	</linearGradient>
	<path style="fill:url(#SVGID_00000181055041127232267550000000980212506972701350_);" d="M707.5,136.4
		c-10.4,12.7-16.9,30-17.8,47.9c-0.5,10.4,1.5,26.1,0.3,39.5c-1,11.5-7,24.4-18.2,24.4c-3.1,0-14.1,0-17.6,0
		c-12.2,0-20.2-12.3-21.7-26.5c-1.3-12.4,0.7-24.9,0-37.4c-0.9-17.8-7.4-35.2-17.8-47.9c-10.4-12.7-24.7-20.6-39.4-21.8l0,0.8
		c9.3,0.7,17.3,8.7,22,18.4c6.9,14.2,7.8,31.3,8.4,47.7c0.7,16.9,0.7,40.8,11.1,53.8c9.6,11.9,23.6,15.7,37.3,15.7
		c3.4,0,13.4,0.1,17.6,0.1c11.5,0,25.8-7.7,33.5-18.2c9.3-12.7,10.2-29.3,10.9-45.6c0.1-1.9,0.2-3.9,0.2-5.8
		c0.6-16.4,1.6-33.6,8.4-47.7c4.7-9.7,12.7-17.8,22-18.4l0-0.8C732.3,115.8,718,123.7,707.5,136.4z"/>
</g>
</svg>
